<svg width="238" height="288" viewBox="0 0 238 288" fill="none" xmlns="http://www.w3.org/2000/svg">
<mask id="mask0_1_1312" style="mask-type:alpha" maskUnits="userSpaceOnUse" x="0" y="0" width="238" height="288">
<path d="M218 0H20C8.9543 0 0 8.9543 0 20V268C0 279.046 8.9543 288 20 288H218C229.046 288 238 279.046 238 268V20C238 8.9543 229.046 0 218 0Z" fill="#E36867"/>
</mask>
<g mask="url(#mask0_1_1312)">
<path d="M218 0H20C8.9543 0 0 8.9543 0 20V270.224C0 281.27 8.9543 290.224 20 290.224H218C229.046 290.224 238 281.27 238 270.224V20C238 8.9543 229.046 0 218 0Z" fill="#2500FF"/>
<path d="M184 111.196C117.174 111.196 63 50.9568 63 -23.352C63 -97.6608 117.174 -157.9 184 -157.9C250.826 -157.9 305 -97.6608 305 -23.352C305 50.9568 250.826 111.196 184 111.196Z" fill="url(#paint0_linear_1_1312)"/>
<path d="M-50 489.266C-134.5 489.266 -203 413.842 -203 320.803C-203 227.763 -134.5 152.34 -50 152.34C34.4996 152.34 103 227.763 103 320.803C103 413.842 34.4996 489.266 -50 489.266Z" fill="url(#paint1_linear_1_1312)"/>
</g>
<defs>
<linearGradient id="paint0_linear_1_1312" x1="28.363" y1="146.395" x2="149.051" y2="15.709" gradientUnits="userSpaceOnUse">
<stop stop-color="white" stop-opacity="0.4"/>
<stop offset="1" stop-color="white" stop-opacity="0"/>
</linearGradient>
<linearGradient id="paint1_linear_1_1312" x1="151.538" y1="91.6351" x2="-66.429" y2="263.683" gradientUnits="userSpaceOnUse">
<stop stop-color="white" stop-opacity="0.4"/>
<stop offset="1" stop-color="white" stop-opacity="0"/>
</linearGradient>
</defs>
</svg>
